/* XPM */
static char * exit_xpm[] = {
"16 16 10 1",
" 	c #FF0303",
".	c #FFEB00",
"+	c #4F230F",
"@	c #583B1A",
"#	c #6E4E2A",
"$	c #4F170C",
"%	c #071821",
"&	c #610303",
"*	c #970404",
"=	c #9E6338",
"  .++@###. .#$++",
"  .+@%%%%%%##$.+",
"  .#%&&&&&&%#. .",
" .#%&&&&&&&&% .#",
" .#%&%%&&%%&%.##",
".#%*%**&&**%*%##",
"##%*&* ** *&*%##",
"$.$%&* ** *&%$$$",
". .@%&****&%++@@",
"#. %&%%%%%%&%@##",
"##%&&&****&&&%##",
"#%&&%&&**&&%&&%#",
"=%&*%&&&&&&%*&%#",
"=.%%%&&&&&&%%%=.",
". .=%&&%%&&%==. ",
" .$$%**%%**%$.  "};
