/* XPM */
static char * singe_xpm[] = {
"16 16 9 1",
" 	c #4F230F",
".	c #583B1A",
"+	c #6E4E2A",
"@	c #4F170C",
"#	c #071821",
"$	c #86C06C",
"%	c #E0F8CF",
"&	c #9E6338",
"*	c #6E4527",
"     .+++++++@  ",
"    .######++@  ",
" ..+#$$$$$$#+@ .",
".++#$$$$$$$$#@++",
"+++#$##$$##$#@++",
"++#%#%%$$%%#%#++",
"++#%$%#%%#%$%#++",
"@@@#$%#%%#%$#@@@",
"++..#$%%%%$#  ..",
"+++#$######$#.++",
"++#$$$%%%%$$$#++",
"+#$$#$$%%$$#$$#+",
"&#$%#$$$$$$#%$#+",
"&&###$$$$$$###&*",
"&&&&#$$##$$#&&&&",
"@@@@#%%##%%#@@@@"};
