/* XPM */
static char * wall_xpm[] = {
"16 16 8 1",
" 	c #4F230F",
".	c #583B1A",
"+	c #6E4E2A",
"@	c #4F170C",
"#	c #0A8F0E",
"$	c #6E4527",
"%	c #9E6338",
"&	c #2E1F00",
"     .+++++++@  ",
"    .++#+++++@  ",
" ..+++$##$$++@ .",
".+++++####+++@++",
"++++$######+%@++",
"++++#+####%#%@++",
"+++#+######%#@++",
"@@@@@######@@@@@",
"++..#.#### #  ..",
"+++#.###### #.++",
"++++###&&###++++",
"+++$$#&&&&#+++++",
"%$++$$&&&&+++%$+",
"%%$$++&&&&++%%%$",
"%%%%%+&&&&%%%%%%",
"@@@@@@@@@@@@@@@@"};
